<mxfile host="app.diagrams.net" agent="Mozilla/5.0 (Macintosh; Intel Mac OS X 10_15_7) AppleWebKit/537.36 (KHTML, like Gecko) Chrome/131.0.0.0 Safari/537.36" version="25.0.1">
  <diagram name="Page-1" id="6Pe_FZK1eR3tLW8eLPMV">
    <mxGraphModel dx="1158" dy="638" grid="1" gridSize="10" guides="1" tooltips="1" connect="1" arrows="1" fold="1" page="1" pageScale="1" pageWidth="827" pageHeight="1169" math="0" shadow="0">
      <root>
        <mxCell id="0" />
        <mxCell id="1" parent="0" />
        <mxCell id="kDZcJOzZq84Ycc0whQLT-1" value="Vertical Container" style="swimlane;whiteSpace=wrap;html=1;" vertex="1" parent="1">
          <mxGeometry x="80" y="40" width="560" height="560" as="geometry" />
        </mxCell>
        <mxCell id="kDZcJOzZq84Ycc0whQLT-2" value="PAO BUILDER" style="rounded=1;whiteSpace=wrap;html=1;" vertex="1" parent="kDZcJOzZq84Ycc0whQLT-1">
          <mxGeometry x="160" y="40" width="240" height="60" as="geometry" />
        </mxCell>
        <mxCell id="kDZcJOzZq84Ycc0whQLT-4" value="Your Build" style="rounded=1;whiteSpace=wrap;html=1;" vertex="1" parent="kDZcJOzZq84Ycc0whQLT-1">
          <mxGeometry x="160" y="120" width="90" height="40" as="geometry" />
        </mxCell>
        <mxCell id="kDZcJOzZq84Ycc0whQLT-3" value="Number converter" style="rounded=1;whiteSpace=wrap;html=1;" vertex="1" parent="kDZcJOzZq84Ycc0whQLT-1">
          <mxGeometry x="310" y="120" width="90" height="40" as="geometry" />
        </mxCell>
        <mxCell id="kDZcJOzZq84Ycc0whQLT-5" value="&lt;div&gt;&lt;span style=&quot;font-family: &amp;quot;Open Sans&amp;quot;, Arial, sans-serif; font-size: 14px; text-align: justify; background-color: rgb(255, 255, 255);&quot;&gt;Intro to PAO system&lt;/span&gt;&lt;/div&gt;&lt;div&gt;&lt;span style=&quot;font-family: &amp;quot;Open Sans&amp;quot;, Arial, sans-serif; font-size: 14px; text-align: justify; background-color: rgb(255, 255, 255);&quot;&gt;&lt;br&gt;&lt;/span&gt;&lt;/div&gt;&lt;span style=&quot;font-family: &amp;quot;Open Sans&amp;quot;, Arial, sans-serif; font-size: 14px; text-align: justify; background-color: rgb(255, 255, 255);&quot;&gt;Lorem ipsum dolor sit amet, consectetur adipiscing elit. Ut rutrum non tortor ac tempor. Quisque maximus vulputate velit dignissim scelerisque. Nulla feugiat porttitor mi, ac condimentum justo. Praesent blandit tincidunt nulla, non aliquam tortor tincidunt eget. Pellentesque tincidunt tincidunt mauris, nec imperdiet tellus mattis non. Nam metus eros, vehicula vel pellentesque in, cursus vel ex. Nulla quis orci id lacus ultricies tempus non ac lorem. Suspendisse vitae lacus sed nunc mollis egestas. Nulla et dolor augue. Curabitur dictum sapien at arcu rutrum viverra. Etiam nec mattis eros. Integer accumsan ut sapien eu dapibus.&lt;/span&gt;" style="rounded=1;whiteSpace=wrap;html=1;" vertex="1" parent="kDZcJOzZq84Ycc0whQLT-1">
          <mxGeometry x="80" y="200" width="400" height="300" as="geometry" />
        </mxCell>
        <mxCell id="kDZcJOzZq84Ycc0whQLT-6" value="Vertical Container" style="swimlane;whiteSpace=wrap;html=1;" vertex="1" parent="1">
          <mxGeometry x="721" y="40" width="520" height="590" as="geometry" />
        </mxCell>
        <mxCell id="kDZcJOzZq84Ycc0whQLT-7" value="PAO BUiILDER" style="rounded=1;whiteSpace=wrap;html=1;" vertex="1" parent="kDZcJOzZq84Ycc0whQLT-6">
          <mxGeometry x="150" y="40" width="220" height="60" as="geometry" />
        </mxCell>
        <mxCell id="kDZcJOzZq84Ycc0whQLT-9" value="Number Converter" style="rounded=1;whiteSpace=wrap;html=1;" vertex="1" parent="kDZcJOzZq84Ycc0whQLT-6">
          <mxGeometry x="280" y="130" width="90" height="60" as="geometry" />
        </mxCell>
        <mxCell id="kDZcJOzZq84Ycc0whQLT-8" value="Home" style="rounded=1;whiteSpace=wrap;html=1;" vertex="1" parent="kDZcJOzZq84Ycc0whQLT-6">
          <mxGeometry x="150" y="130" width="90" height="60" as="geometry" />
        </mxCell>
        <mxCell id="kDZcJOzZq84Ycc0whQLT-10" value="Display 26 results&lt;div&gt;eg. AA to AZ&lt;/div&gt;&lt;div&gt;or&lt;/div&gt;&lt;div&gt;BA to BZ&lt;/div&gt;" style="whiteSpace=wrap;html=1;aspect=fixed;" vertex="1" parent="kDZcJOzZq84Ycc0whQLT-6">
          <mxGeometry x="107.5" y="240" width="305" height="305" as="geometry" />
        </mxCell>
        <mxCell id="kDZcJOzZq84Ycc0whQLT-11" value="" style="shape=flexArrow;endArrow=classic;startArrow=classic;html=1;rounded=0;" edge="1" parent="kDZcJOzZq84Ycc0whQLT-6">
          <mxGeometry width="100" height="100" relative="1" as="geometry">
            <mxPoint x="150" y="570" as="sourcePoint" />
            <mxPoint x="370" y="570" as="targetPoint" />
          </mxGeometry>
        </mxCell>
        <mxCell id="kDZcJOzZq84Ycc0whQLT-12" value="pagination" style="edgeLabel;html=1;align=center;verticalAlign=middle;resizable=0;points=[];" vertex="1" connectable="0" parent="kDZcJOzZq84Ycc0whQLT-11">
          <mxGeometry x="-0.0551" relative="1" as="geometry">
            <mxPoint as="offset" />
          </mxGeometry>
        </mxCell>
      </root>
    </mxGraphModel>
  </diagram>
</mxfile>
